<?xml version="1.0" encoding="UTF-8"?>
<svg xmlns="http://www.w3.org/2000/svg" xmlns:xlink="http://www.w3.org/1999/xlink" width="65px" height="65px" viewBox="0 0 65 65" version="1.1">
<g id="surface1">
<path style=" stroke:none;fill-rule:nonzero;fill:rgb(19.215686%,47.058824%,77.647059%);fill-opacity:1;" d="M 6.347656 0 L 58.652344 0 C 62.15625 0 65 2.84375 65 6.347656 L 65 58.652344 C 65 62.15625 62.15625 65 58.652344 65 L 6.347656 65 C 2.84375 65 0 62.15625 0 58.652344 L 0 6.347656 C 0 2.84375 2.84375 0 6.347656 0 Z M 6.347656 0 "/>
<path style=" stroke:none;fill-rule:nonzero;fill:rgb(19.215686%,47.058824%,77.647059%);fill-opacity:1;" d="M 6.347656 0 L 58.652344 0 C 62.15625 0 65 2.84375 65 6.347656 L 65 58.652344 C 65 62.15625 62.15625 65 58.652344 65 L 6.347656 65 C 2.84375 65 0 62.15625 0 58.652344 L 0 6.347656 C 0 2.84375 2.84375 0 6.347656 0 Z M 6.347656 0 "/>
<path style=" stroke:none;fill-rule:evenodd;fill:rgb(100%,100%,100%);fill-opacity:1;" d="M 40.238281 51.722656 L 40.238281 58.078125 C 41.269531 58.609375 42.492188 59.007812 43.902344 59.269531 C 45.3125 59.535156 46.800781 59.667969 48.363281 59.667969 C 49.886719 59.667969 51.332031 59.523438 52.703125 59.230469 C 54.074219 58.941406 55.277344 58.460938 56.308594 57.792969 C 57.34375 57.121094 58.160156 56.25 58.765625 55.167969 C 59.367188 54.089844 59.667969 52.757812 59.667969 51.167969 C 59.667969 50.015625 59.496094 49.007812 59.152344 48.140625 C 58.808594 47.273438 58.308594 46.5 57.660156 45.824219 C 57.011719 45.148438 56.234375 44.542969 55.328125 44.007812 C 54.417969 43.472656 53.394531 42.964844 52.257812 42.488281 C 51.421875 42.144531 50.675781 41.808594 50.011719 41.484375 C 49.347656 41.160156 48.785156 40.832031 48.324219 40.492188 C 47.859375 40.15625 47.5 39.796875 47.25 39.421875 C 47 39.042969 46.871094 38.617188 46.871094 38.140625 C 46.871094 37.703125 46.984375 37.308594 47.210938 36.957031 C 47.433594 36.605469 47.753906 36.304688 48.164062 36.054688 C 48.574219 35.800781 49.078125 35.605469 49.675781 35.46875 C 50.269531 35.328125 50.933594 35.257812 51.660156 35.257812 C 52.191406 35.257812 52.75 35.300781 53.339844 35.378906 C 53.929688 35.457031 54.523438 35.582031 55.117188 35.746094 C 55.714844 35.910156 56.292969 36.121094 56.855469 36.371094 C 57.417969 36.625 57.9375 36.914062 58.417969 37.246094 L 58.417969 31.308594 C 57.449219 30.9375 56.394531 30.660156 55.246094 30.484375 C 54.101562 30.304688 52.785156 30.214844 51.304688 30.214844 C 49.792969 30.214844 48.363281 30.378906 47.011719 30.703125 C 45.660156 31.027344 44.472656 31.53125 43.445312 32.222656 C 42.417969 32.910156 41.605469 33.785156 41.011719 34.851562 C 40.414062 35.917969 40.117188 37.191406 40.117188 38.675781 C 40.117188 40.570312 40.664062 42.183594 41.757812 43.519531 C 42.847656 44.859375 44.507812 45.992188 46.734375 46.917969 C 47.609375 47.273438 48.421875 47.625 49.175781 47.96875 C 49.933594 48.3125 50.585938 48.671875 51.132812 49.042969 C 51.683594 49.414062 52.117188 49.816406 52.4375 50.253906 C 52.753906 50.691406 52.914062 51.1875 52.914062 51.742188 C 52.914062 52.152344 52.8125 52.535156 52.613281 52.886719 C 52.414062 53.238281 52.113281 53.539062 51.710938 53.800781 C 51.304688 54.058594 50.804688 54.257812 50.199219 54.40625 C 49.597656 54.550781 48.890625 54.625 48.085938 54.625 C 46.707031 54.625 45.34375 54.382812 43.992188 53.898438 C 42.640625 53.414062 41.390625 52.691406 40.238281 51.722656 Z M 29.550781 36.066406 L 37.703125 36.066406 L 37.703125 30.851562 L 14.980469 30.851562 L 14.980469 36.066406 L 23.09375 36.066406 L 23.09375 59.289062 L 29.550781 59.289062 Z M 29.550781 36.066406 "/>
</g>
</svg>
